# xmcd CD database file
#
# Track frame offsets:
#	150
#	27661
#	55197
#	74558
#	108522
#	131493
#	157717
#	177428
#	206783
#
# Disc length: 3134 seconds
#
# Revision: 0
# Processed by: cddbd v1.5.2PL0 Copyright (c) Steve Scherf et al.
# Submitted via: CDex 1.70beta2
#
DISCID=810c3c09
DTITLE=Maanouche Swing Quintet - Montreal Jazz-up
DYEAR=2010
DGENRE=Jazz
TTITLE0=Nica's Dream
TTITLE1=Nardis
TTITLE2=Rue de la roche
TTITLE3=I fall in love too easily
TTITLE4=Four
TTITLE5=Footprints
TTITLE6=I said - Damn Lou page Sam
TTITLE7=Django
TTITLE8=Moanin
EXTD=YEAR: 2010
EXTT0=
EXTT1=
EXTT2=
EXTT3=
EXTT4=
EXTT5=
EXTT6=
EXTT7=
EXTT8=
PLAYORDER=
